HIERARCHY
ROOT Hips
{
	OFFSET -3.958830 18.904000 13.208200
	CHANNELS 6 Xposition Yposition Zposition Zrotation Yrotation Xrotation 
	JOINT LHipJoint
	{
		OFFSET 0.000000 0.000000 0.000000
		CHANNELS 3 Zrotation Yrotation Xrotation
		JOINT LeftUpLeg
		{
			OFFSET 1.800000 -1.400000 0.085000
			CHANNELS 3 Zrotation Yrotation Xrotation
			JOINT LeftLeg
			{
				OFFSET 2.215000 -6.000000 0.000000
				CHANNELS 3 Zrotation Yrotation Xrotation
				JOINT LeftFoot
				{
					OFFSET 2.500000 -6.900000 0.000000
					CHANNELS 3 Zrotation Yrotation Xrotation
					JOINT LeftToeBase
					{
						OFFSET 0.200000 -0.500000 1.950000
						CHANNELS 3 Zrotation Yrotation Xrotation
						End Site
						{
							OFFSET 0.000000 0.000000 0.000000
						}
					}
				}
			}
		}
	}
	JOINT RHipJoint
	{
		OFFSET 0.000000 0.000000 0.000000
		CHANNELS 3 Zrotation Yrotation Xrotation
		JOINT RightUpLeg
		{
			OFFSET -1.800000 -1.400000 0.085000
			CHANNELS 3 Zrotation Yrotation Xrotation
			JOINT RightLeg
			{
				OFFSET -2.215000 -6.000000 0.000000
				CHANNELS 3 Zrotation Yrotation Xrotation
				JOINT RightFoot
				{
					OFFSET -2.500000 -6.900000 0.000000
					CHANNELS 3 Zrotation Yrotation Xrotation
					JOINT RightToeBase
					{
						OFFSET -0.200000 -0.500000 1.950000
						CHANNELS 3 Zrotation Yrotation Xrotation
						End Site
						{
							OFFSET 0.000000 0.000000 0.000000
						}
					}
				}
			}
		}
	}
	JOINT LowerBack
	{
		OFFSET 0.000000 0.000000 0.000000
		CHANNELS 3 Zrotation Yrotation Xrotation
		JOINT Spine
		{
			OFFSET -0.087000 1.940000 -0.288900
			CHANNELS 3 Zrotation Yrotation Xrotation
			JOINT Spine1
			{
				OFFSET 0.000000 1.950000 0.060000
				CHANNELS 3 Zrotation Yrotation Xrotation
				JOINT Neck
				{
					OFFSET 0.000000 0.000000 0.000000
					CHANNELS 3 Zrotation Yrotation Xrotation
					JOINT Neck1
					{
						OFFSET 0.000000 1.600000 0.340000
						CHANNELS 3 Zrotation Yrotation Xrotation
						JOINT Head
						{
							OFFSET 0.000000 1.667000 -0.240000
							CHANNELS 3 Zrotation Yrotation Xrotation
							End Site
							{
								OFFSET 0.000000 0.000000 0.000000
							}
						}
					}
				}
				JOINT LeftShoulder
				{
					OFFSET 0.000000 0.000000 0.000000
					CHANNELS 3 Zrotation Yrotation Xrotation
					JOINT LeftArm
					{
						OFFSET 2.700000 1.550000 -0.730000
						CHANNELS 3 Zrotation Yrotation Xrotation
						JOINT LeftForeArm
						{
							OFFSET 5.450000 0.000000 0.000000
							CHANNELS 3 Zrotation Yrotation Xrotation
							JOINT LeftHand
							{
								OFFSET 3.450000 0.000000 0.000000
								CHANNELS 3 Zrotation Yrotation Xrotation
								JOINT LeftHandIndex1
								{
									OFFSET 0.750000 0.000000 0.000000
									CHANNELS 3 Zrotation Yrotation Xrotation
									End Site
									{
										OFFSET 0.000000 0.000000 0.000000
									}
								}
							}
						}
					}
				}
				JOINT RightShoulder
				{
					OFFSET 0.000000 0.000000 0.000000
					CHANNELS 3 Zrotation Yrotation Xrotation
					JOINT RightArm
					{
						OFFSET -2.700000 1.550000 -0.730000
						CHANNELS 3 Zrotation Yrotation Xrotation
						JOINT RightForeArm
						{
							OFFSET -5.450000 0.000000 0.000000
							CHANNELS 3 Zrotation Yrotation Xrotation
							JOINT RightHand
							{
								OFFSET -3.450000 0.000000 0.000000
								CHANNELS 3 Zrotation Yrotation Xrotation
								JOINT RightHandIndex1
								{
									OFFSET -0.750000 0.000000 0.000000
									CHANNELS 3 Zrotation Yrotation Xrotation
									End Site
									{
										OFFSET 0.000000 0.000000 0.000000
									}
								}
							}
						}
					}
				}
			}
		}
	}
}
MOTION
Frames: 8
Frame Time: 0.016667
8.076110 16.640900 -10.982900 2.048767 11.427358 5.560689 -15.237694 13.579866 2.635695 18.619587 -0.886385 -0.107750 -4.375008 6.210453 9.659024 0.254592 4.947993 2.898273 -0.053860 -0.176380 0.088120 18.012551 -10.411499 3.809895 -10.702756 5.921066 -32.419061 15.389881 -10.227091 31.027535 -0.358389 -5.164834 2.267571 -0.210580 0.050270 0.253760 -3.274325 -1.697105 -8.294456 5.123620 -3.595966 11.963301 -4.637550 -2.393546 -4.156689 3.193221 3.538542 -17.487380 5.184941 -12.402801 27.778034 -7.088760 -7.237860 -5.463520 -4.489224 -13.717873 8.175913 18.505758 12.873205 1.096310 4.175044 -2.526702 -0.365925 -4.135447 2.621847 0.172090 0.014740 0.091500 -0.048810 -4.138230 14.438264 12.654734 -11.954089 -2.844411 0.015682 -4.313383 0.196021 -0.099641 2.956091 -1.068249 0.034610 -0.095460 0.071030 0.029940 
7.980490 16.743430 -10.878240 2.426012 12.445965 5.719864 -15.257716 13.617808 2.715497 17.831511 -0.883697 -1.805719 -5.733578 6.391997 9.760098 0.359963 4.857954 2.970420 -0.080330 -0.142280 0.011160 17.978449 -10.566661 3.565121 -8.895545 5.258651 -30.501976 13.258079 -9.032171 29.200178 -0.240556 -4.703823 2.498573 -0.212410 0.143020 0.266880 -3.229994 -1.709949 -8.144105 4.369901 -3.576356 11.182553 -3.932568 -2.674553 -2.354157 3.122639 3.188616 -18.063977 5.037052 -12.044350 25.634707 -7.670410 -6.534300 -2.127780 -3.237252 -13.852920 8.525482 18.443258 13.110402 1.006090 3.851273 -2.838412 -0.241774 -4.188579 2.660867 0.024850 0.103190 0.050560 0.025250 -5.113078 14.735034 13.324619 -12.313464 -5.493279 0.404535 -3.839199 1.288874 -0.216212 2.957980 -1.143918 0.078210 -0.101480 0.027740 0.118830 
7.835040 16.921070 -10.704210 3.245472 12.502865 5.058621 -15.301738 13.829956 2.755332 14.735093 -0.585480 -2.908537 -5.264535 6.066489 10.044014 0.299243 4.550066 3.079405 -0.102340 -0.149190 -0.001610 17.896936 -10.905319 3.234470 -6.490336 4.093496 -26.601493 9.652203 -7.228504 26.260595 -0.117634 -3.965318 2.797418 -0.214340 0.165720 0.257390 -3.081552 -1.743338 -7.914580 2.126208 -2.985866 10.654802 -2.149387 -2.779628 -0.771735 3.236502 3.097296 -18.059478 4.668465 -11.546265 26.678520 -8.218970 -5.958140 -1.926380 -1.755622 -13.239686 8.583952 16.835562 10.796480 0.633299 3.984751 -1.070047 -0.335594 -4.276322 2.565649 0.011140 0.120170 0.044770 0.017920 -6.435177 14.058774 13.269942 -12.151931 -6.107356 0.475920 -6.048990 3.349899 -0.068564 2.916602 -1.170024 0.070660 -0.069450 0.047460 0.124290 
7.724940 17.089160 -10.510550 3.414270 13.421360 4.949163 -15.316708 13.800316 2.825621 11.768018 -0.509608 -4.353617 -5.158195 5.483244 8.484146 0.202845 4.228545 3.218080 -0.117050 -0.162130 -0.017870 17.901400 -11.063490 2.993367 -4.694777 2.809973 -22.449941 8.042866 -5.926522 21.048211 -0.003779 -3.402371 3.040955 -0.182710 0.223230 0.253350 -3.098948 -1.683999 -7.710730 2.232258 -3.140133 9.151052 -2.430846 -3.070219 2.180163 3.368536 3.369931 -17.968190 5.498383 -12.035599 24.715796 -9.178610 -5.859850 -0.619090 -1.729694 -13.521723 8.725700 17.003685 10.828478 0.797135 4.393318 -1.026539 -0.312729 -4.328908 2.590285 -0.037630 0.181920 -0.011250 0.027090 -6.737648 13.867671 13.345640 -12.428365 -6.058663 0.536920 -6.325391 1.125269 -0.225880 2.939450 -1.193050 0.035580 -0.049130 0.057620 0.125030 
7.587240 17.240730 -10.320840 3.787679 13.509175 5.432479 -15.337332 13.512380 2.886256 8.965475 -0.531426 -5.980323 -6.944119 5.308346 6.923183 0.242875 3.964466 3.303671 -0.071090 -0.076050 -0.045670 17.956542 -10.976932 2.963603 -3.595335 2.095311 -19.520340 9.695045 -5.500728 15.711218 -0.018632 -3.201635 3.147715 -0.158670 0.228450 0.269730 -3.121512 -1.494044 -7.600566 1.326901 -2.437205 7.627224 -1.971866 -2.695850 4.574808 3.042414 3.824311 -17.487859 6.410670 -12.564246 23.959112 -7.291030 -7.049120 -0.763450 -0.667576 -13.423623 8.885888 15.858880 8.416578 0.394594 5.370304 1.702265 -0.327976 -4.364915 2.659572 -0.086930 0.176690 0.004020 0.078170 -6.921222 12.941763 12.728418 -13.427877 -6.404014 0.672677 -4.854887 -0.414820 -0.359625 2.969115 -1.221211 0.094690 -0.069160 0.015690 0.181130 
7.471700 17.397520 -10.113860 3.156468 12.571237 5.820071 -15.357800 13.221543 2.957436 6.980812 -0.607808 -6.832852 -7.429646 4.715405 3.858901 0.252726 3.708370 3.369719 -0.077600 -0.063530 -0.037910 18.021555 -10.847020 2.973408 -2.012226 1.639181 -17.058235 9.387310 -4.666059 10.643908 -0.013786 -3.005974 3.231904 -0.171940 0.202000 0.302850 -3.133429 -1.319308 -7.555195 1.806155 -1.616882 5.487196 -1.707194 -2.123513 6.349407 3.261508 4.578228 -17.227536 7.835456 -13.480146 23.372708 -8.983640 -6.531230 -0.096500 -0.595068 -13.480510 8.799610 14.951582 6.540563 0.078319 7.041036 3.033742 -0.217754 -4.426242 2.743924 -0.137950 0.197970 0.011000 0.052080 -7.239646 12.182346 12.677256 -12.241398 -6.936620 0.730847 -7.406463 1.517474 -0.250618 2.966123 -1.305803 0.145040 -0.122030 0.022740 0.186590 
7.332590 17.513430 -9.934710 2.556999 11.033853 5.638269 -15.345544 13.092996 2.945763 5.401611 -0.704346 -7.951602 -7.011813 4.401141 3.322458 0.157899 3.544623 3.455558 -0.067860 -0.060190 -0.045060 18.077433 -10.889937 2.938445 -1.021300 1.263605 -15.378674 6.827170 -3.903477 8.519014 0.020063 -2.934935 3.278026 -0.117720 0.256100 0.277490 -3.192737 -1.100916 -7.444196 2.206908 -0.798142 4.994262 -1.455934 -1.396952 7.922906 3.259677 4.841587 -16.982618 8.665366 -13.460164 22.202192 -8.223860 -6.709990 0.910280 0.288333 -12.734691 8.451596 14.320669 5.343649 0.197543 5.927697 3.404916 -0.311728 -4.447874 2.740152 -0.156670 0.237430 -0.044970 0.075680 -7.918063 11.269964 12.792717 -10.114747 -7.340771 0.611304 -10.587436 2.941492 -0.334059 2.939573 -1.433538 0.087280 -0.090270 0.012520 0.179890 
7.213760 17.635550 -9.764750 1.076165 9.807935 5.223597 -15.312689 12.895140 2.942056 4.580512 -0.820950 -9.043159 -7.181441 4.130577 2.458356 0.173988 3.273098 3.504260 0.099240 0.178420 0.047220 18.159848 -10.866962 2.991580 0.583162 0.955324 -13.512202 6.095699 -3.545356 6.483734 -0.073225 -2.970802 3.264442 -0.002760 0.151100 0.283690 -3.325469 -0.834522 -7.434120 4.543019 -0.089075 4.681575 -1.498992 -0.734561 8.645175 3.651858 5.170521 -16.054380 9.319423 -13.981768 21.799525 -8.377680 -6.531100 -1.142820 -0.603828 -12.186188 7.652834 13.066524 3.313309 0.056581 7.639613 2.067795 -0.071393 -4.272487 2.956909 -0.178380 0.185610 0.045870 0.143230 -7.575718 10.316816 12.284171 -9.357464 -7.116868 0.611234 -11.938683 2.511872 -0.459607 2.995367 -1.547410 0.167070 -0.134590 -0.129600 0.211320 
